<?xml version="1.0"?>
<svg xmlns="http://www.w3.org/2000/svg" xmlns:xlink="http://www.w3.org/1999/xlink" version="1.1" id="Capa_1" x="0px" y="0px" viewBox="0 0 512 512" style="enable-background:new 0 0 512 512;" xml:space="preserve" width="512px" height="512px"><g><g>
	<g>
		<path d="M423.542,163.125l-160-160c-4.167-4.167-10.917-4.167-15.083,0l-160,160c-3.042,3.063-3.969,7.615-2.313,11.625    c1.646,3.99,5.542,6.583,9.854,6.583h21.333c2.833,0,5.542-1.125,7.542-3.125L234.667,68.417v432.917    c0,5.896,4.771,10.667,10.667,10.667h21.333c5.896,0,10.667-4.771,10.667-10.667V68.417l109.792,109.792    c2,2,4.708,3.125,7.542,3.125H416c4.313,0,8.208-2.594,9.854-6.583c0.552-1.323,0.813-2.708,0.813-4.083    C426.667,167.896,425.583,165.167,423.542,163.125z" data-original="#000000" class="active-path" data-old_color="#000000" fill="#853B3B"/>
	</g>
</g></g> </svg>
